<svg xmlns="http://www.w3.org/2000/svg" version="1.1" xmlns:xlink="http://www.w3.org/1999/xlink" xmlns:svgjs="http://svgjs.com/svgjs" width="512" height="512"><svg xmlns="http://www.w3.org/2000/svg" xml:space="preserve" viewBox="0 0 512 512"><path fill="#d22d5c" d="M8.5763651 329.03938 145.66172 354.42705 215.40203 9.7432853 331.58957 338.18547l141.98006-95.30948-43.08 146.4568 72.934-27.5285-71.89208 154.06434s-57.2685-.7606-56.81723-2.29833c.45131-1.53773 34.87931-72.43201 34.42804-74.21094-.45132-1.77896-49.75515 18.67647-49.75515 18.67647s27.64748-96.88393 27.75472-97.53082c.32842-1.98072-83.40112 60.99686-83.40112 60.99686l-75.80707-230.81108-38.7937 225.98956s-88.69413-18.57341-91.089374-16.67385c-2.395272 1.89956 55.248104 118.04379 55.248104 118.04379l-66.09355-.00002"></path></svg><style>@media (prefers-color-scheme: light) { :root { filter: none; } }
@media (prefers-color-scheme: dark) { :root { filter: invert(100%); } }
</style></svg>