<?xml version="1.0" standalone="no"?>
<!DOCTYPE svg PUBLIC "-//W3C//DTD SVG 20010904//EN"
 "http://www.w3.org/TR/2001/REC-SVG-20010904/DTD/svg10.dtd">
<svg version="1.0" xmlns="http://www.w3.org/2000/svg"
 width="700.000000pt" height="700.000000pt" viewBox="0 0 700.000000 700.000000"
 preserveAspectRatio="xMidYMid meet">
<metadata>
Created by potrace 1.14, written by Peter Selinger 2001-2017
</metadata>
<g transform="translate(0.000000,700.000000) scale(0.100000,-0.100000)"
fill="#000000" stroke="none">
<path d="M2925 6773 c-9 -49 -19 -97 -21 -108 -2 -11 -17 -87 -34 -170 -17
-82 -33 -161 -36 -175 -2 -14 -7 -38 -11 -55 -4 -16 -8 -34 -9 -40 -1 -5 -6
-35 -13 -65 -6 -30 -13 -66 -15 -80 -3 -14 -25 -126 -51 -250 -25 -124 -48
-241 -51 -260 -3 -19 -8 -38 -10 -41 -2 -3 -6 -21 -9 -40 -5 -28 -56 -285 -71
-354 -5 -26 -33 -164 -38 -190 -2 -11 -30 -146 -61 -300 -31 -154 -59 -291
-61 -305 -4 -21 -39 -193 -49 -240 -2 -8 -22 -107 -45 -220 -23 -113 -43 -214
-46 -225 -2 -11 -7 -36 -10 -55 -7 -35 -10 -51 -19 -92 -5 -23 -52 -255 -59
-293 -2 -11 -23 -112 -46 -225 -23 -113 -44 -216 -46 -230 -3 -14 -7 -34 -9
-45 -2 -11 -8 -41 -14 -68 -6 -26 -14 -64 -17 -85 -3 -20 -7 -45 -10 -54 -3
-10 -7 -30 -10 -45 -3 -16 -11 -55 -19 -88 -7 -33 -16 -76 -19 -95 -5 -32 -11
-58 -21 -100 -2 -8 -4 -18 -4 -21 -1 -4 -40 2 -88 11 -49 10 -104 21 -123 24
-19 3 -83 15 -142 26 -242 45 -324 61 -353 65 -16 3 -64 12 -105 20 -41 8 -88
17 -105 20 -43 8 -181 33 -245 44 -30 6 -71 13 -90 16 -19 3 -42 8 -50 10 -8
2 -31 7 -50 10 -54 10 -169 31 -349 64 -91 17 -166 29 -168 28 -1 -2 85 -215
193 -473 108 -258 204 -489 214 -514 37 -92 67 -166 83 -200 9 -19 59 -141
112 -270 53 -129 103 -248 110 -265 13 -29 109 -260 252 -605 l69 -165 447 -3
c246 -1 447 0 447 2 0 2 -55 116 -121 253 -228 468 -321 659 -389 807 -15 33
-48 104 -72 156 -50 106 -113 253 -123 288 -6 20 -3 22 27 22 18 0 62 -5 98
-11 36 -6 76 -12 90 -14 14 -2 99 -18 190 -35 91 -17 176 -33 190 -36 14 -2
36 -7 50 -10 14 -3 36 -8 50 -10 14 -3 126 -26 250 -51 256 -52 300 -59 300
-45 0 5 7 49 15 98 16 91 20 112 30 174 5 33 19 113 29 170 4 24 14 82 22 125
2 11 9 49 14 85 6 36 13 76 16 90 2 14 7 41 10 60 3 19 12 71 20 115 14 80
102 588 109 635 6 41 75 445 80 471 7 34 23 128 29 164 3 17 12 73 21 125 10
52 19 109 21 125 3 17 9 53 14 80 5 28 12 64 14 80 5 31 7 39 32 185 8 47 17
97 19 113 24 139 32 173 38 157 8 -20 36 -104 247 -750 100 -305 206 -627 235
-715 29 -88 135 -410 235 -715 100 -305 211 -644 247 -753 45 -137 68 -195 76
-190 7 4 152 111 322 238 171 127 353 263 405 301 165 123 393 284 397 281 1
-2 -20 -84 -48 -183 -28 -98 -54 -192 -59 -209 -4 -16 -31 -111 -60 -210 -28
-99 -55 -193 -60 -210 -4 -16 -37 -135 -74 -263 -37 -129 -66 -237 -64 -242 2
-4 102 33 223 81 121 49 271 107 334 129 l113 40 -6 -24 c-6 -25 -40 -100
-127 -284 -27 -57 -49 -105 -49 -106 0 -2 -32 -70 -71 -152 -39 -82 -100 -209
-135 -283 -35 -73 -64 -138 -64 -142 0 -5 177 -9 394 -9 l394 0 15 38 c8 20
41 91 72 157 32 66 70 147 85 180 15 33 44 96 65 140 20 44 45 98 55 120 10
22 48 102 84 179 36 76 66 140 66 142 0 1 32 69 70 149 38 80 70 148 70 150 0
1 28 61 62 131 34 71 62 131 62 134 1 3 15 35 32 70 17 36 41 85 52 110 11 25
48 104 82 175 62 131 82 175 77 175 -1 0 -92 -34 -202 -76 -110 -42 -229 -86
-265 -99 -36 -13 -166 -62 -290 -109 -123 -47 -226 -84 -228 -82 -2 2 2 21 8
43 6 21 17 58 25 83 7 25 25 86 40 135 15 50 28 97 30 105 2 8 17 60 34 115
16 55 60 201 96 325 36 124 75 254 85 290 156 526 259 884 256 887 -3 3 -320
-207 -616 -407 -8 -6 -121 -81 -250 -168 -818 -549 -1063 -712 -1067 -709 -2
3 -23 60 -47 128 -24 68 -54 151 -65 184 -12 33 -39 110 -61 170 -42 121 -74
213 -300 850 -156 439 -203 572 -315 890 -35 99 -89 252 -120 340 -31 88 -75
212 -96 275 -22 63 -46 131 -54 150 -8 19 -41 112 -74 205 -59 170 -103 294
-266 755 -142 400 -187 525 -189 528 -2 1 -11 -37 -21 -85z"/>
</g>
</svg>
